<?xml version="1.0" encoding="UTF-8" standalone="no"?>
<!-- Created with Inkscape (http://www.inkscape.org/) -->

<svg
   version="1.1"
   id="svg2"
   xml:space="preserve"
   width="350.66666"
   height="88"
   viewBox="0 0 350.66666 88"
   sodipodi:docname="8daa3d0b082f9b7716003fd5dbcd0058.ai"
   xmlns:inkscape="http://www.inkscape.org/namespaces/inkscape"
   xmlns:sodipodi="http://sodipodi.sourceforge.net/DTD/sodipodi-0.dtd"
   xmlns="http://www.w3.org/2000/svg"
   xmlns:svg="http://www.w3.org/2000/svg"><defs
     id="defs6"><clipPath
       clipPathUnits="userSpaceOnUse"
       id="clipPath16"><path
         d="M 0,0 H 263 V 66 H 0 Z"
         id="path14" /></clipPath></defs><sodipodi:namedview
     id="namedview4"
     pagecolor="#ffffff"
     bordercolor="#666666"
     borderopacity="1.0"
     inkscape:pageshadow="2"
     inkscape:pageopacity="0.0"
     inkscape:pagecheckerboard="0" /><g
     id="g8"
     inkscape:groupmode="layer"
     inkscape:label="8daa3d0b082f9b7716003fd5dbcd0058"
     transform="matrix(1.3333333,0,0,-1.3333333,0,88)"><g
       id="g10"><g
         id="g12"
         clip-path="url(#clipPath16)"><g
           id="g18"
           transform="translate(132.6338,54.3933)"><path
             d="m 0,0 c -0.628,0.047 -1.263,0.069 -1.9,0.069 -3.507,0 -6.896,-0.698 -9.885,-2.005 v 4.86 h -10.453 v -33.603 l 7.535,-7.298 c 0,0 2.918,2.696 2.918,7.298 v 14.601 h 0.01 c 0,2.73 4.223,5.783 9.875,5.783 0.653,0 1.288,-0.043 1.9,-0.12 z"
             style="fill:#0069b3;fill-opacity:1;fill-rule:nonzero;stroke:none"
             id="path20" /></g><g
           id="g22"
           transform="translate(107.8799,21.1594)"><path
             d="m 0,0 c -2.277,-1.467 -4.932,-2.255 -7.72,-2.255 -7.837,0 -14.215,6.323 -14.215,14.096 0,7.771 6.378,14.096 14.215,14.096 2.259,0 4.414,-0.509 6.409,-1.51 l 0.002,0.006 V 35.46 c -2.084,0.554 -4.245,0.841 -6.411,0.841 -13.601,0 -24.668,-10.973 -24.668,-24.46 0,-13.488 11.067,-24.461 24.668,-24.461 5.494,0 10.692,1.76 14.966,5.01 z"
             style="fill:#0069b3;fill-opacity:1;fill-rule:nonzero;stroke:none"
             id="path24" /></g><g
           id="g26"
           transform="translate(174.873,54.6003)"><path
             d="M 0,0 C -4.267,0 -8.151,-1.636 -11.058,-4.309 -13.964,-1.636 -17.851,0 -22.116,0 c -3.703,0 -7.12,-1.234 -9.857,-3.306 -1.94,1.14 -4.115,1.993 -6.426,2.523 V -6.05 H -38.4 v -12.326 -15.221 -12.325 h 10.452 v 12.325 15.221 2.23 c 0,3.187 2.616,5.783 5.832,5.783 3.216,0 5.831,-2.596 5.831,-5.783 h 0.001 v -8.202 -11.921 -9.653 h 10.452 v 9.653 11.921 8.202 h 10e-4 c 0,3.187 2.616,5.783 5.831,5.783 3.204,0 5.809,-2.574 5.831,-5.743 v -9.218 -11.382 -9.216 h 10.452 v 9.216 11.382 9.178 h 0.002 C 16.285,-7.243 8.98,0 0,0"
             style="fill:#0069b3;fill-opacity:1;fill-rule:nonzero;stroke:none"
             id="path28" /></g><g
           id="g30"
           transform="translate(53.5249,16.5354)"><path
             d="m 0,0 c -1.501,-4.856 -15.493,-5.137 -27.167,-2.938 -7.771,1.465 -8.709,4.47 -8.821,5.138 -0.661,-4.103 1.663,-6.063 8.964,-9.107 11.573,-4.824 32.617,-4.824 38.273,-2.739 5.243,1.936 5.751,4.504 5.797,4.87 -0.003,0.055 -0.002,0.109 -0.009,0.165 C 16.452,0.161 13.433,8.264 8.383,17.147 1.957,28.452 -6.82,39.686 -11.154,44.828 -8.632,41.295 -6.246,35.803 -3.686,28.668 2.983,10.087 0.002,-0.009 0.002,-0.009 Z"
             style="fill:#85c2eb;fill-opacity:1;fill-rule:nonzero;stroke:none"
             id="path32" /></g><g
           id="g34"
           transform="translate(5.6328,2.8859)"><path
             d="m 0,0 c 0,0 -4.297,3.124 0.191,13.158 4.488,10.035 20.146,31.242 30.075,30.769 9.93,-0.474 17.629,-30.286 17.629,-30.286 0,0 2.98,10.095 -3.688,28.676 C 35.571,66.378 28.93,71.76 12.317,46.294 -4.297,20.826 -11.552,3.124 0,0"
             style="fill:#0069b3;fill-opacity:1;fill-rule:nonzero;stroke:none"
             id="path36" /></g><g
           id="g38"
           transform="translate(70.5757,11.8029)"><path
             d="m 0,0 c 0,0 -0.146,-2.826 -5.802,-4.912 -5.656,-2.087 -26.699,-2.087 -38.274,2.736 -11.574,4.827 -10.65,6.923 -5.13,19.173 5.521,12.25 8.572,14.996 12.314,17.328 1.157,0.72 2.404,0.683 3.238,0.53 -0.339,0.083 -0.68,0.139 -1.022,0.155 -9.93,0.472 -25.589,-20.734 -30.076,-30.769 -4.487,-10.034 -0.191,-13.159 -0.191,-13.159 -0.032,0.01 -0.063,0.02 -0.096,0.029 0.009,-0.004 0.015,-0.007 0.022,-0.009 36.472,-5.599 58.537,-2.041 62.975,3.255 C 0.386,-2.743 0,0 0,0"
             style="fill:#4995d1;fill-opacity:1;fill-rule:nonzero;stroke:none"
             id="path40" /></g><g
           id="g42"
           transform="translate(240.0068,50.8767)"><path
             d="M 0,0 V 3.062 H 13.303 V 15.111 H 0 v 0.011 h -12.153 v -27.063 h 10.362 c 7.047,-0.483 12.633,-6.317 12.633,-13.425 0,-0.364 -0.02,-0.726 -0.049,-1.086 0.058,-9.857 -5.225,-18.312 -13.516,-21.585 -2.211,-0.872 -4.481,-1.298 -6.744,-1.298 -0.856,0 -1.713,0.069 -2.564,0.189 2.885,-1.113 6.019,-1.73 9.298,-1.73 14.184,0 25.726,11.444 25.726,25.51 C 22.993,-12.215 12.906,-1.359 0,0"
             style="fill:#4995d1;fill-opacity:1;fill-rule:nonzero;stroke:none"
             id="path44" /></g><g
           id="g46"
           transform="translate(236.5225,4.7385)"><path
             d="M 0,0 C 5.233,2.065 9.14,6.445 11.005,11.967 8.514,9.119 4.842,7.312 0.75,7.312 c -7.486,0 -13.576,6.038 -13.576,13.459 v 40.49 H -24.979 V 61.25 h -6.382 V 49.199 h 6.382 V 20.718 h 10e-4 C -24.964,14.867 -22.95,9.476 -19.585,5.173 -13.848,-0.771 -6.738,-2.66 0,0"
             style="fill:#85c2eb;fill-opacity:1;fill-rule:nonzero;stroke:none"
             id="path48" /></g><g
           id="g50"
           transform="translate(231.1279,24.4211)"><path
             d="m 0,0 h -1.629 l -0.222,-0.506 h -1.266 l 2.027,4.38 h 0.55 l 2.029,-4.38 H 0.22 Z M -0.367,0.839 -0.815,1.864 -1.263,0.839 Z"
             style="fill:#0069b3;fill-opacity:1;fill-rule:nonzero;stroke:none"
             id="path52" /></g><g
           id="g54"
           transform="translate(236.835,28.2463)"><path
             d="m 0,0 v -4.374 h -0.369 l -2.244,2.155 v -2.115 h -1.158 v 4.372 h 0.374 l 2.236,-2.146 V 0 Z"
             style="fill:#0069b3;fill-opacity:1;fill-rule:nonzero;stroke:none"
             id="path56" /></g><g
           id="g58"
           transform="translate(237.4131,26.0734)"><path
             d="M 0,0 C 0,1.298 1.039,2.283 2.396,2.283 3.751,2.283 4.791,1.298 4.791,0 4.791,-1.289 3.751,-2.268 2.393,-2.268 1.037,-2.268 0,-1.289 0,0 m 3.619,0.008 c 0,0.668 -0.53,1.182 -1.223,1.182 -0.693,0 -1.223,-0.514 -1.223,-1.182 0,-0.666 0.53,-1.178 1.223,-1.178 0.693,0 1.223,0.512 1.223,1.178"
             style="fill:#0069b3;fill-opacity:1;fill-rule:nonzero;stroke:none"
             id="path60" /></g><g
           id="g62"
           transform="translate(242.5576,24.6486)"><path
             d="M 0,0 0.7,0.681 C 0.881,0.415 1.22,0.255 1.585,0.255 c 0.246,0 0.487,0.089 0.487,0.266 0,0.221 -0.446,0.417 -0.874,0.605 -0.551,0.237 -1.026,0.597 -1.026,1.247 0,0.75 0.718,1.285 1.546,1.285 0.667,0 1.186,-0.313 1.355,-0.738 L 2.405,2.28 C 2.275,2.509 1.94,2.607 1.731,2.607 1.493,2.607 1.323,2.487 1.323,2.339 1.323,2.141 1.632,2.076 2.102,1.881 2.784,1.597 3.236,1.183 3.236,0.545 3.236,-0.278 2.462,-0.791 1.588,-0.791 0.871,-0.791 0.218,-0.479 0,0"
             style="fill:#0069b3;fill-opacity:1;fill-rule:nonzero;stroke:none"
             id="path64" /></g></g></g></g></svg>
